<?xml version="1.0" encoding="UTF-8" standalone="no"?>
<svg
   xmlns:dc="http://purl.org/dc/elements/1.1/"
   xmlns:cc="http://creativecommons.org/ns#"
   xmlns:rdf="http://www.w3.org/1999/02/22-rdf-syntax-ns#"
   xmlns:svg="http://www.w3.org/2000/svg"
   xmlns="http://www.w3.org/2000/svg"
   xmlns:sodipodi="http://sodipodi.sourceforge.net/DTD/sodipodi-0.dtd"
   xmlns:inkscape="http://www.inkscape.org/namespaces/inkscape"
   inkscape:version="1.0rc1 (09960d6f05, 2020-04-09)"
   sodipodi:docname="gubb_abs.svg"
   width="512"
   height="512"
   viewBox="0 0 135.46666 135.46667"
   version="1.1"
   id="svg8">
  <sodipodi:namedview
     inkscape:current-layer="layer1"
     inkscape:window-maximized="0"
     inkscape:window-y="23"
     inkscape:window-x="26"
     inkscape:cy="265.79518"
     inkscape:cx="276.02617"
     inkscape:zoom="2.1738009"
     showgrid="false"
     id="namedview46"
     inkscape:window-height="1026"
     inkscape:window-width="1585"
     inkscape:pageshadow="2"
     inkscape:pageopacity="0"
     guidetolerance="10"
     gridtolerance="10"
     objecttolerance="10"
     borderopacity="1"
     bordercolor="#666666"
     pagecolor="#ffffff" />
  <defs
     id="defs2" />
  <metadata
     id="metadata5">
    <rdf:RDF>
      <cc:Work
         rdf:about="">
        <dc:format>image/svg+xml</dc:format>
        <dc:type
           rdf:resource="http://purl.org/dc/dcmitype/StillImage" />
        <dc:title />
      </cc:Work>
    </rdf:RDF>
  </metadata>
  <g
     id="layer1">
    <path
       style="fill:none;stroke:#000000;stroke-width:0.264583px;stroke-linecap:butt;stroke-linejoin:miter;stroke-opacity:1"
       d="M 84.995181,45.68308 C 86.50321,44.938752 85.209639,45.5597 83.24335,45.7366 81.277062,45.913499 83.328893,46.171604 85.004778,46.060039 86.680664,45.948473 84.241075,45.404948 83.854147,46.405256 83.46722,47.405564 83.960545,46.428695 84.862391,45.427095 85.764237,44.425495 84.237295,45.407808 84.173895,46.152318 84.110499,46.896824 84.784046,46.968709 84.47934,46.178798 84.174633,45.388887 71.533194,42.681134 71.533194,42.681134 71.533194,42.681134 69.548634,42.301128 53.702518,47.165449 53.702518,47.165449 57.61996,45.864771 58.276897,45.803221 58.933834,45.741671 54.857394,47.620848 53.902487,47.420048 52.94758,47.219248 57.008887,46.184792 58.401936,46.263142 59.794985,46.341487 54.691383,47.148008 53.785385,46.662711 52.879386,46.177414 57.362686,46.596178 57.635648,47.264834 57.90861,47.93349 54.722391,46.641671 54.647181,46.163664 54.571974,45.685657 56.855426,45.827214 56.354534,46.626907 55.853641,47.4266 55.094063,47.562492 55.094063,47.562492 55.094063,47.562492 54.610681,45.46192 69.409685,42.407112 69.409685,42.407112 50.39179,60.621113 45.137229,52.991403 39.882667,45.361693 38.289492,39.329336 52.827491,41.40694 67.365493,43.484543 69.668604,44.258161 66.599181,41.056147 63.529757,37.854133 38.939917,24.186848 37.159861,25.495007 35.379803,26.803165 31.881286,22.199031 34.614535,23.050952 37.347784,23.902874 70.036963,40.842143 71.014167,42.490654 71.991372,44.139164 91.362864,58.285819 95.124475,50.354386 98.886085,42.422956 97.96472,37.548235 92.482564,39.018218 87.000408,40.4882 68.73086,44.665053 71.084086,41.374298 73.437311,38.083543 100.74182,18.302743 102.35483,21.691634 103.96785,25.080525 99.19458,22.509104 95.316039,24.985525 91.437499,27.461943 69.051347,42.52014 68.60033,45.527966 68.149313,48.535791 53.627213,69.141371 55.168189,73.375924 56.709164,77.610475 66.881065,74.028437 67.690182,68.044107 68.499299,62.059775 75.08187,90.330245 72.021045,91.604019 68.042801,93.259581 62.593009,94.169696 59.909352,96.347012 56.455728,96.916002 85.500148,87.140302 85.489708,89.838052 80.115336,90.89461 73.224279,91.254792 71.483898,93.141342 69.743514,95.027892 64.779451,109.30488 67.589958,108.45087 70.400463,107.59686 83.375563,106.76164 84.743231,103.79454 86.1109,100.82742 88.778376,117.83349 88.778376,117.83349 102.49226,117.59771 106.19647,109.78325 102.67436,100.35132 99.152239,90.919387 103.5197,64.980862 107.88051,60.725606 112.24131,56.470349 134.04392,6.7841631 102.50652,5.1258016 70.969126,3.46744 40.929865,24.642929 50.748336,30.573188 60.566806,36.503447 68.483961,41.472827 71.899102,42.760815 75.314243,44.048802 84.995181,45.68308 84.995181,45.68308 Z"
       id="path12" />
  </g>
</svg>
