<?xml version="1.0" encoding="UTF-8" standalone="no"?>
<svg
   xmlns:dc="http://purl.org/dc/elements/1.1/"
   xmlns:cc="http://creativecommons.org/ns#"
   xmlns:rdf="http://www.w3.org/1999/02/22-rdf-syntax-ns#"
   xmlns:svg="http://www.w3.org/2000/svg"
   xmlns="http://www.w3.org/2000/svg"
   id="svg8"
   version="1.1"
   viewBox="0 0 135.46666 135.46667"
   height="512"
   width="512">
  <defs
     id="defs2" />
  <metadata
     id="metadata5">
    <rdf:RDF>
      <cc:Work
         rdf:about="">
        <dc:format>image/svg+xml</dc:format>
        <dc:type
           rdf:resource="http://purl.org/dc/dcmitype/StillImage" />
        <dc:title></dc:title>
      </cc:Work>
    </rdf:RDF>
  </metadata>
  <g
     id="layer1">
    <path
       id="path12"
       d="M 88.778376,117.83349 C 88.778376,117.83349 86.1109,100.82742 84.743231,103.79454 83.375563,106.76164 70.400463,107.59686 67.589958,108.45087 64.779451,109.30488 69.743514,95.027892 71.483898,93.141342 73.224279,91.254792 80.115336,90.89461 85.489708,89.838052 85.500148,87.140302 56.455728,96.916002 59.909352,96.347012 62.593009,94.169696 68.042801,93.259581 72.021045,91.604019 75.08187,90.330245 68.499299,62.059775 67.690182,68.044107 66.881065,74.028437 56.709164,77.610475 55.168189,73.375924 53.627213,69.141371 68.149313,48.535791 68.60033,45.527966 69.051347,42.52014 91.437499,27.461943 95.316039,24.985525 99.19458,22.509104 103.96785,25.080525 102.35483,21.691634 100.74182,18.302743 73.437311,38.083543 71.084086,41.374298 68.73086,44.665053 87.000408,40.4882 92.482564,39.018218 97.96472,37.548235 98.886085,42.422956 95.124475,50.354386 91.362864,58.285819 71.991372,44.139164 71.014167,42.490654 70.036963,40.842143 37.347784,23.902874 34.614535,23.050952 31.881286,22.199031 35.379803,26.803165 37.159861,25.495007 38.939917,24.186848 63.529757,37.854133 66.599181,41.056147 69.668604,44.258161 67.365493,43.484543 52.827491,41.40694 38.289492,39.329336 39.882667,45.361693 45.137229,52.991403 50.39179,60.621113 69.409685,42.407112 69.409685,42.407112 54.610681,45.46192 55.094063,47.562492 55.094063,47.562492 55.094063,47.562492 55.853641,47.4266 56.354534,46.626907 56.855426,45.827214 54.571974,45.685657 54.647181,46.163664 54.722391,46.641671 57.90861,47.93349 57.635648,47.264834 57.362686,46.596178 52.879386,46.177414 53.785385,46.662711 54.691383,47.148008 59.794985,46.341487 58.401936,46.263142 57.008887,46.184792 52.94758,47.219248 53.902487,47.420048 54.857394,47.620848 58.933834,45.741671 58.276897,45.803221 57.61996,45.864771 53.702518,47.165449 53.702518,47.165449 69.548634,42.301128 71.533194,42.681134 71.533194,42.681134 71.533194,42.681134 84.174633,45.388887 84.47934,46.178798 84.784046,46.968709 84.110499,46.896824 84.173895,46.152318 84.237295,45.407808 85.764237,44.425495 84.862391,45.427095 83.960545,46.428695 83.46722,47.405564 83.854147,46.405256 84.241075,45.404948 86.680664,45.948473 85.004778,46.060039 83.328893,46.171604 81.277062,45.913499 83.24335,45.7366 85.209639,45.5597 86.50321,44.938752 84.995181,45.68308"
       style="fill:none;stroke:#000000;stroke-width:0.264583px;stroke-linecap:butt;stroke-linejoin:miter;stroke-opacity:1" />
  </g>
</svg>
